<svg version="1.1" xmlns="http://www.w3.org/2000/svg" xmlns:xlink="http://www.w3.org/1999/xlink" width="862.4326171875" height="361"><defs/><g><text fill="#eeeeee" stroke="none" font-family="Arial" font-size="24px" font-style="normal" font-weight="normal" text-decoration="none" x="0" y="0">UNREGISTERED</text><text fill="#eeeeee" stroke="none" font-family="Arial" font-size="24px" font-style="normal" font-weight="normal" text-decoration="none" x="0" y="30">UNREGISTERED</text><text fill="#eeeeee" stroke="none" font-family="Arial" font-size="24px" font-style="normal" font-weight="normal" text-decoration="none" x="0" y="60">UNREGISTERED</text><text fill="#eeeeee" stroke="none" font-family="Arial" font-size="24px" font-style="normal" font-weight="normal" text-decoration="none" x="0" y="90">UNREGISTERED</text><text fill="#eeeeee" stroke="none" font-family="Arial" font-size="24px" font-style="normal" font-weight="normal" text-decoration="none" x="0" y="120">UNREGISTERED</text><text fill="#eeeeee" stroke="none" font-family="Arial" font-size="24px" font-style="normal" font-weight="normal" text-decoration="none" x="0" y="150">UNREGISTERED</text><text fill="#eeeeee" stroke="none" font-family="Arial" font-size="24px" font-style="normal" font-weight="normal" text-decoration="none" x="0" y="180">UNREGISTERED</text><text fill="#eeeeee" stroke="none" font-family="Arial" font-size="24px" font-style="normal" font-weight="normal" text-decoration="none" x="0" y="210">UNREGISTERED</text><text fill="#eeeeee" stroke="none" font-family="Arial" font-size="24px" font-style="normal" font-weight="normal" text-decoration="none" x="0" y="240">UNREGISTERED</text><text fill="#eeeeee" stroke="none" font-family="Arial" font-size="24px" font-style="normal" font-weight="normal" text-decoration="none" x="0" y="270">UNREGISTERED</text><text fill="#eeeeee" stroke="none" font-family="Arial" font-size="24px" font-style="normal" font-weight="normal" text-decoration="none" x="0" y="300">UNREGISTERED</text><text fill="#eeeeee" stroke="none" font-family="Arial" font-size="24px" font-style="normal" font-weight="normal" text-decoration="none" x="0" y="330">UNREGISTERED</text><text fill="#eeeeee" stroke="none" font-family="Arial" font-size="24px" font-style="normal" font-weight="normal" text-decoration="none" x="0" y="360">UNREGISTERED</text><text fill="#eeeeee" stroke="none" font-family="Arial" font-size="24px" font-style="normal" font-weight="normal" text-decoration="none" x="200" y="0">UNREGISTERED</text><text fill="#eeeeee" stroke="none" font-family="Arial" font-size="24px" font-style="normal" font-weight="normal" text-decoration="none" x="200" y="30">UNREGISTERED</text><text fill="#eeeeee" stroke="none" font-family="Arial" font-size="24px" font-style="normal" font-weight="normal" text-decoration="none" x="200" y="60">UNREGISTERED</text><text fill="#eeeeee" stroke="none" font-family="Arial" font-size="24px" font-style="normal" font-weight="normal" text-decoration="none" x="200" y="90">UNREGISTERED</text><text fill="#eeeeee" stroke="none" font-family="Arial" font-size="24px" font-style="normal" font-weight="normal" text-decoration="none" x="200" y="120">UNREGISTERED</text><text fill="#eeeeee" stroke="none" font-family="Arial" font-size="24px" font-style="normal" font-weight="normal" text-decoration="none" x="200" y="150">UNREGISTERED</text><text fill="#eeeeee" stroke="none" font-family="Arial" font-size="24px" font-style="normal" font-weight="normal" text-decoration="none" x="200" y="180">UNREGISTERED</text><text fill="#eeeeee" stroke="none" font-family="Arial" font-size="24px" font-style="normal" font-weight="normal" text-decoration="none" x="200" y="210">UNREGISTERED</text><text fill="#eeeeee" stroke="none" font-family="Arial" font-size="24px" font-style="normal" font-weight="normal" text-decoration="none" x="200" y="240">UNREGISTERED</text><text fill="#eeeeee" stroke="none" font-family="Arial" font-size="24px" font-style="normal" font-weight="normal" text-decoration="none" x="200" y="270">UNREGISTERED</text><text fill="#eeeeee" stroke="none" font-family="Arial" font-size="24px" font-style="normal" font-weight="normal" text-decoration="none" x="200" y="300">UNREGISTERED</text><text fill="#eeeeee" stroke="none" font-family="Arial" font-size="24px" font-style="normal" font-weight="normal" text-decoration="none" x="200" y="330">UNREGISTERED</text><text fill="#eeeeee" stroke="none" font-family="Arial" font-size="24px" font-style="normal" font-weight="normal" text-decoration="none" x="200" y="360">UNREGISTERED</text><text fill="#eeeeee" stroke="none" font-family="Arial" font-size="24px" font-style="normal" font-weight="normal" text-decoration="none" x="400" y="0">UNREGISTERED</text><text fill="#eeeeee" stroke="none" font-family="Arial" font-size="24px" font-style="normal" font-weight="normal" text-decoration="none" x="400" y="30">UNREGISTERED</text><text fill="#eeeeee" stroke="none" font-family="Arial" font-size="24px" font-style="normal" font-weight="normal" text-decoration="none" x="400" y="60">UNREGISTERED</text><text fill="#eeeeee" stroke="none" font-family="Arial" font-size="24px" font-style="normal" font-weight="normal" text-decoration="none" x="400" y="90">UNREGISTERED</text><text fill="#eeeeee" stroke="none" font-family="Arial" font-size="24px" font-style="normal" font-weight="normal" text-decoration="none" x="400" y="120">UNREGISTERED</text><text fill="#eeeeee" stroke="none" font-family="Arial" font-size="24px" font-style="normal" font-weight="normal" text-decoration="none" x="400" y="150">UNREGISTERED</text><text fill="#eeeeee" stroke="none" font-family="Arial" font-size="24px" font-style="normal" font-weight="normal" text-decoration="none" x="400" y="180">UNREGISTERED</text><text fill="#eeeeee" stroke="none" font-family="Arial" font-size="24px" font-style="normal" font-weight="normal" text-decoration="none" x="400" y="210">UNREGISTERED</text><text fill="#eeeeee" stroke="none" font-family="Arial" font-size="24px" font-style="normal" font-weight="normal" text-decoration="none" x="400" y="240">UNREGISTERED</text><text fill="#eeeeee" stroke="none" font-family="Arial" font-size="24px" font-style="normal" font-weight="normal" text-decoration="none" x="400" y="270">UNREGISTERED</text><text fill="#eeeeee" stroke="none" font-family="Arial" font-size="24px" font-style="normal" font-weight="normal" text-decoration="none" x="400" y="300">UNREGISTERED</text><text fill="#eeeeee" stroke="none" font-family="Arial" font-size="24px" font-style="normal" font-weight="normal" text-decoration="none" x="400" y="330">UNREGISTERED</text><text fill="#eeeeee" stroke="none" font-family="Arial" font-size="24px" font-style="normal" font-weight="normal" text-decoration="none" x="400" y="360">UNREGISTERED</text><text fill="#eeeeee" stroke="none" font-family="Arial" font-size="24px" font-style="normal" font-weight="normal" text-decoration="none" x="600" y="0">UNREGISTERED</text><text fill="#eeeeee" stroke="none" font-family="Arial" font-size="24px" font-style="normal" font-weight="normal" text-decoration="none" x="600" y="30">UNREGISTERED</text><text fill="#eeeeee" stroke="none" font-family="Arial" font-size="24px" font-style="normal" font-weight="normal" text-decoration="none" x="600" y="60">UNREGISTERED</text><text fill="#eeeeee" stroke="none" font-family="Arial" font-size="24px" font-style="normal" font-weight="normal" text-decoration="none" x="600" y="90">UNREGISTERED</text><text fill="#eeeeee" stroke="none" font-family="Arial" font-size="24px" font-style="normal" font-weight="normal" text-decoration="none" x="600" y="120">UNREGISTERED</text><text fill="#eeeeee" stroke="none" font-family="Arial" font-size="24px" font-style="normal" font-weight="normal" text-decoration="none" x="600" y="150">UNREGISTERED</text><text fill="#eeeeee" stroke="none" font-family="Arial" font-size="24px" font-style="normal" font-weight="normal" text-decoration="none" x="600" y="180">UNREGISTERED</text><text fill="#eeeeee" stroke="none" font-family="Arial" font-size="24px" font-style="normal" font-weight="normal" text-decoration="none" x="600" y="210">UNREGISTERED</text><text fill="#eeeeee" stroke="none" font-family="Arial" font-size="24px" font-style="normal" font-weight="normal" text-decoration="none" x="600" y="240">UNREGISTERED</text><text fill="#eeeeee" stroke="none" font-family="Arial" font-size="24px" font-style="normal" font-weight="normal" text-decoration="none" x="600" y="270">UNREGISTERED</text><text fill="#eeeeee" stroke="none" font-family="Arial" font-size="24px" font-style="normal" font-weight="normal" text-decoration="none" x="600" y="300">UNREGISTERED</text><text fill="#eeeeee" stroke="none" font-family="Arial" font-size="24px" font-style="normal" font-weight="normal" text-decoration="none" x="600" y="330">UNREGISTERED</text><text fill="#eeeeee" stroke="none" font-family="Arial" font-size="24px" font-style="normal" font-weight="normal" text-decoration="none" x="600" y="360">UNREGISTERED</text><text fill="#eeeeee" stroke="none" font-family="Arial" font-size="24px" font-style="normal" font-weight="normal" text-decoration="none" x="800" y="0">UNREGISTERED</text><text fill="#eeeeee" stroke="none" font-family="Arial" font-size="24px" font-style="normal" font-weight="normal" text-decoration="none" x="800" y="30">UNREGISTERED</text><text fill="#eeeeee" stroke="none" font-family="Arial" font-size="24px" font-style="normal" font-weight="normal" text-decoration="none" x="800" y="60">UNREGISTERED</text><text fill="#eeeeee" stroke="none" font-family="Arial" font-size="24px" font-style="normal" font-weight="normal" text-decoration="none" x="800" y="90">UNREGISTERED</text><text fill="#eeeeee" stroke="none" font-family="Arial" font-size="24px" font-style="normal" font-weight="normal" text-decoration="none" x="800" y="120">UNREGISTERED</text><text fill="#eeeeee" stroke="none" font-family="Arial" font-size="24px" font-style="normal" font-weight="normal" text-decoration="none" x="800" y="150">UNREGISTERED</text><text fill="#eeeeee" stroke="none" font-family="Arial" font-size="24px" font-style="normal" font-weight="normal" text-decoration="none" x="800" y="180">UNREGISTERED</text><text fill="#eeeeee" stroke="none" font-family="Arial" font-size="24px" font-style="normal" font-weight="normal" text-decoration="none" x="800" y="210">UNREGISTERED</text><text fill="#eeeeee" stroke="none" font-family="Arial" font-size="24px" font-style="normal" font-weight="normal" text-decoration="none" x="800" y="240">UNREGISTERED</text><text fill="#eeeeee" stroke="none" font-family="Arial" font-size="24px" font-style="normal" font-weight="normal" text-decoration="none" x="800" y="270">UNREGISTERED</text><text fill="#eeeeee" stroke="none" font-family="Arial" font-size="24px" font-style="normal" font-weight="normal" text-decoration="none" x="800" y="300">UNREGISTERED</text><text fill="#eeeeee" stroke="none" font-family="Arial" font-size="24px" font-style="normal" font-weight="normal" text-decoration="none" x="800" y="330">UNREGISTERED</text><text fill="#eeeeee" stroke="none" font-family="Arial" font-size="24px" font-style="normal" font-weight="normal" text-decoration="none" x="800" y="360">UNREGISTERED</text><g transform="translate(-70,-134) scale(1,1)"><rect fill="#C0C0C0" stroke="none" x="87" y="295" width="128.2177734375" height="33" opacity="0.2"/></g><g transform="translate(-70,-134) scale(1,1)"><rect fill="#ffeaad" stroke="none" x="80" y="288" width="128.2177734375" height="33"/></g><g transform="translate(-70,-134) scale(1,1)"><path fill="none" stroke="#000000" d="M 80 288 L 208.2177734375 288 L 208.2177734375 321 L 80 321 L 80 288 Z Z" stroke-miterlimit="10"/></g><g transform="translate(-70,-134) scale(1,1)"><g><path fill="none" stroke="none"/><text fill="#000000" stroke="none" font-family="arial" font-size="14px" font-style="normal" font-weight="normal" text-decoration="none" x="144.10888671875" y="306.5"></text></g></g><g transform="translate(-70,-134) scale(1,1)"><g><path fill="none" stroke="none"/><text fill="#000000" stroke="none" font-family="arial" font-size="14px" font-style="normal" font-weight="normal" text-decoration="none" x="93.91943359375" y="311.5">Passenger/User</text></g></g><g transform="translate(-70,-134) scale(1,1)"><g><path fill="none" stroke="none"/><text fill="#000000" stroke="none" font-family="arial" font-size="14px" font-style="normal" font-weight="normal" text-decoration="none" x="-24.5" y="165.5"></text></g></g><g transform="translate(-70,-134) scale(1,1)"><rect fill="#C0C0C0" stroke="none" x="823" y="335" width="106.4326171875" height="33" opacity="0.2"/></g><g transform="translate(-70,-134) scale(1,1)"><rect fill="#ffeaad" stroke="none" x="816" y="328" width="106.4326171875" height="33"/></g><g transform="translate(-70,-134) scale(1,1)"><path fill="none" stroke="#000000" d="M 816 328 L 922.4326171875 328 L 922.4326171875 361 L 816 361 L 816 328 Z Z" stroke-miterlimit="10"/></g><g transform="translate(-70,-134) scale(1,1)"><g><path fill="none" stroke="none"/><text fill="#000000" stroke="none" font-family="arial" font-size="14px" font-style="normal" font-weight="normal" text-decoration="none" x="869.21630859375" y="346.5"></text></g></g><g transform="translate(-70,-134) scale(1,1)"><g><path fill="none" stroke="none"/><text fill="#000000" stroke="none" font-family="arial" font-size="14px" font-style="normal" font-weight="normal" text-decoration="none" x="849.375" y="351.5">Admin</text></g></g><g transform="translate(-70,-134) scale(1,1)"><g><path fill="none" stroke="none"/><text fill="#000000" stroke="none" font-family="arial" font-size="14px" font-style="normal" font-weight="normal" text-decoration="none" x="31.5" y="133.5"></text></g></g><g transform="translate(-70,-134) scale(1,1)"><path fill="#C0C0C0" stroke="none" d="M 401 271 L 549 271 Q 559 271 559 281 L 559 413 Q 559 423 549 423 L 401 423 Q 391 423 391 413 L 391 281 Q 391 271 401 271 Z" opacity="0.2"/></g><g transform="translate(-70,-134) scale(1,1)"><path fill="#e2e2e2" stroke="none" d="M 394 264 L 542 264 Q 552 264 552 274 L 552 406 Q 552 416 542 416 L 394 416 Q 384 416 384 406 L 384 274 Q 384 264 394 264 Z"/></g><g transform="translate(-70,-134) scale(1,1)"><path fill="none" stroke="#5b005b" d="M 394 264 L 542 264 Q 552 264 552 274 L 552 406 Q 552 416 542 416 L 394 416 Q 384 416 384 406 L 384 274 Q 384 264 394 264 Z" stroke-miterlimit="10"/></g><g transform="translate(-70,-134) scale(1,1)"><path fill="none" stroke="#5b005b" d="M 384 288 L 552 288" stroke-miterlimit="10"/></g><g transform="translate(-70,-134) scale(1,1)"><g><path fill="none" stroke="none"/><text fill="#000000" stroke="none" font-family="arial" font-size="14px" font-style="normal" font-weight="normal" text-decoration="none" x="409.251953125" y="310.5">Airline Reservation</text><text fill="#000000" stroke="none" font-family="arial" font-size="14px" font-style="normal" font-weight="normal" text-decoration="none" x="444.662109375" y="324.5">System</text></g></g><g transform="translate(-70,-134) scale(1,1)"><g><path fill="none" stroke="none"/><text fill="#000000" stroke="none" font-family="arial" font-size="14px" font-style="normal" font-weight="normal" text-decoration="none" x="468" y="282.5"></text></g></g><g transform="translate(-70,-134) scale(1,1)"><path fill="none" stroke="#000000" d="M 869 328 L 869 312 M 869 312 A 8 8 0 0 0 861 304 L 552 304" stroke-miterlimit="10"/></g><g transform="translate(-70,-134) scale(1,1)"><path fill="#000000" stroke="none" d="M 562.1626748576241 299.790482243984 L 552 304 L 562.1626748576241 308.209517756016"/></g><g transform="translate(-70,-134) scale(1,1)"><path fill="none" stroke="#000000" d="M 562.1626748576241 299.790482243984 L 552 304 L 562.1626748576241 308.209517756016 L 562.1626748576241 299.790482243984" stroke-miterlimit="10"/></g><g transform="translate(-70,-134) scale(1,1)"><g><path fill="none" stroke="none"/><text fill="#000000" stroke="none" font-family="arial" font-size="14px" font-style="normal" font-weight="normal" text-decoration="none" x="659.930419921875" y="299.5">Resrvation Info</text></g></g><g transform="translate(-70,-134) scale(1,1)"><path fill="none" stroke="#000000" d="M 384 304 L 208 304" stroke-miterlimit="10"/></g><g transform="translate(-70,-134) scale(1,1)"><path fill="#000000" stroke="none" d="M 218.16267485762415 299.790482243984 L 208 304 L 218.16267485762415 308.209517756016"/></g><g transform="translate(-70,-134) scale(1,1)"><path fill="none" stroke="#000000" d="M 218.16267485762415 299.790482243984 L 208 304 L 218.16267485762415 308.209517756016 L 218.16267485762415 299.790482243984" stroke-miterlimit="10"/></g><g transform="translate(-70,-134) scale(1,1)"><g><path fill="none" stroke="none"/><text fill="#000000" stroke="none" font-family="arial" font-size="14px" font-style="normal" font-weight="normal" text-decoration="none" x="243.93798828125" y="325.5">Reservation Info</text></g></g><g transform="translate(-70,-134) scale(1,1)"><path fill="none" stroke="#000000" d="M 888 328 L 888 232 M 888 232 A 8 8 0 0 0 880 224 L 504 224 M 504 224 A 8 8 0 0 0 496 232 L 496 264" stroke-miterlimit="10"/></g><g transform="translate(-70,-134) scale(1,1)"><path fill="#000000" stroke="none" d="M 491.790482243984 253.83732514237585 L 496 264 L 500.209517756016 253.83732514237585"/></g><g transform="translate(-70,-134) scale(1,1)"><path fill="none" stroke="#000000" d="M 491.790482243984 253.83732514237585 L 496 264 L 500.209517756016 253.83732514237585 L 491.790482243984 253.83732514237585" stroke-miterlimit="10"/></g><g transform="translate(-70,-134) scale(1,1)"><path fill="none" stroke="#000000" d="M 128 240 L 128 240" stroke-miterlimit="10"/></g><g transform="translate(-70,-134) scale(1,1)"><path fill="none" stroke="#000000" d="M 440 264 L 440 224 M 440 224 A 8 8 0 0 0 432 216 L 112 216" stroke-miterlimit="10"/></g><g transform="translate(-70,-134) scale(1,1)"><path fill="none" stroke="#000000" d="M 112 216 L 112 288" stroke-miterlimit="10"/></g><g transform="translate(-70,-134) scale(1,1)"><path fill="#000000" stroke="none" d="M 107.79048224398402 277.83732514237585 L 112 288 L 116.20951775601598 277.83732514237585"/></g><g transform="translate(-70,-134) scale(1,1)"><path fill="none" stroke="#000000" d="M 107.79048224398402 277.83732514237585 L 112 288 L 116.20951775601598 277.83732514237585 L 107.79048224398402 277.83732514237585" stroke-miterlimit="10"/></g><g transform="translate(-70,-134) scale(1,1)"><g><path fill="none" stroke="none"/><text fill="#000000" stroke="none" font-family="arial" font-size="14px" font-style="normal" font-weight="normal" text-decoration="none" x="461" y="283">0.0</text></g></g><g transform="translate(-70,-134) scale(1,1)"><g><path fill="none" stroke="none"/><text fill="#000000" stroke="none" font-family="arial" font-size="14px" font-style="normal" font-weight="normal" text-decoration="none" x="205" y="235">Customer</text><text fill="#000000" stroke="none" font-family="arial" font-size="14px" font-style="normal" font-weight="normal" text-decoration="none" x="205" y="249">Info</text></g></g><g transform="translate(-70,-134) scale(1,1)"><g><path fill="none" stroke="none"/><text fill="#000000" stroke="none" font-family="arial" font-size="14px" font-style="normal" font-weight="normal" text-decoration="none" x="661" y="243">Customer</text><text fill="#000000" stroke="none" font-family="arial" font-size="14px" font-style="normal" font-weight="normal" text-decoration="none" x="661" y="257">Info</text></g></g><g transform="translate(-70,-134) scale(1,1)"><path fill="none" stroke="#000000" d="M 128 320 L 128 432 M 128 432 A 8 8 0 0 0 136 440 L 424 440 M 424 440 A 8 8 0 0 0 432 432 L 432 416" stroke-miterlimit="10"/></g><g transform="translate(-70,-134) scale(1,1)"><path fill="#000000" stroke="none" d="M 436.209517756016 426.16267485762415 L 432 416 L 427.790482243984 426.16267485762415"/></g><g transform="translate(-70,-134) scale(1,1)"><path fill="none" stroke="#000000" d="M 436.209517756016 426.16267485762415 L 432 416 L 427.790482243984 426.16267485762415 L 436.209517756016 426.16267485762415" stroke-miterlimit="10"/></g><g transform="translate(-70,-134) scale(1,1)"><g><path fill="none" stroke="none"/><text fill="#000000" stroke="none" font-family="arial" font-size="14px" font-style="normal" font-weight="normal" text-decoration="none" x="189" y="435">Reservation Details</text></g></g><g transform="translate(-70,-134) scale(1,1)"><path fill="none" stroke="#000000" d="M 120 320 L 120 464 M 120 464 A 8 8 0 0 0 128 472 L 464 472 M 464 472 A 8 8 0 0 0 472 464 L 472 416" stroke-miterlimit="10"/></g><g transform="translate(-70,-134) scale(1,1)"><path fill="#000000" stroke="none" d="M 476.209517756016 426.16267485762415 L 472 416 L 467.790482243984 426.16267485762415"/></g><g transform="translate(-70,-134) scale(1,1)"><path fill="none" stroke="#000000" d="M 476.209517756016 426.16267485762415 L 472 416 L 467.790482243984 426.16267485762415 L 476.209517756016 426.16267485762415" stroke-miterlimit="10"/></g><g transform="translate(-70,-134) scale(1,1)"><g><path fill="none" stroke="none"/><text fill="#000000" stroke="none" font-family="arial" font-size="14px" font-style="normal" font-weight="normal" text-decoration="none" x="197" y="467">Flight Availability</text></g></g><g transform="translate(-70,-134) scale(1,1)"><path fill="none" stroke="#000000" d="M 864 360 L 864 464 M 864 464 A 8 8 0 0 1 856 472 L 520 472 M 520 472 A 8 8 0 0 1 512 464 L 512 416" stroke-miterlimit="10"/></g><g transform="translate(-70,-134) scale(1,1)"><path fill="#000000" stroke="none" d="M 516.209517756016 426.16267485762415 L 512 416 L 507.790482243984 426.16267485762415"/></g><g transform="translate(-70,-134) scale(1,1)"><path fill="none" stroke="#000000" d="M 516.209517756016 426.16267485762415 L 512 416 L 507.790482243984 426.16267485762415 L 516.209517756016 426.16267485762415" stroke-miterlimit="10"/></g><g transform="translate(-70,-134) scale(1,1)"><g><path fill="none" stroke="none"/><text fill="#000000" stroke="none" font-family="arial" font-size="14px" font-style="normal" font-weight="normal" text-decoration="none" x="573" y="467">Add/Delete/Modify Flights</text></g></g><g transform="translate(-70,-134) scale(1,1)"><path fill="none" stroke="#000000" d="M 144 320 L 144 352 M 144 352 A 8 8 0 0 0 152 360 L 384 360" stroke-miterlimit="10"/></g><g transform="translate(-70,-134) scale(1,1)"><path fill="#000000" stroke="none" d="M 373.83732514237585 364.209517756016 L 384 360 L 373.83732514237585 355.790482243984"/></g><g transform="translate(-70,-134) scale(1,1)"><path fill="none" stroke="#000000" d="M 373.83732514237585 364.209517756016 L 384 360 L 373.83732514237585 355.790482243984 L 373.83732514237585 364.209517756016" stroke-miterlimit="10"/></g><g transform="translate(-70,-134) scale(1,1)"><g><path fill="none" stroke="none"/><text fill="#000000" stroke="none" font-family="arial" font-size="14px" font-style="normal" font-weight="normal" text-decoration="none" x="221" y="355">Login</text></g></g><g transform="translate(-70,-134) scale(1,1)"><path fill="none" stroke="#000000" d="M 816 343 L 552 343" stroke-miterlimit="10"/></g><g transform="translate(-70,-134) scale(1,1)"><path fill="#000000" stroke="none" d="M 562.1626748576241 338.790482243984 L 552 343 L 562.1626748576241 347.209517756016"/></g><g transform="translate(-70,-134) scale(1,1)"><path fill="none" stroke="#000000" d="M 562.1626748576241 338.790482243984 L 552 343 L 562.1626748576241 347.209517756016 L 562.1626748576241 338.790482243984" stroke-miterlimit="10"/></g><g transform="translate(-70,-134) scale(1,1)"><g><path fill="none" stroke="none"/><text fill="#000000" stroke="none" font-family="arial" font-size="14px" font-style="normal" font-weight="normal" text-decoration="none" x="665.875732421875" y="364.5">Login</text></g></g><g transform="translate(-70,-134) scale(1,1)"><path fill="none" stroke="#000000" d="M 832 360 L 832 384 M 832 384 A 8 8 0 0 1 824 392 L 552 392" stroke-miterlimit="10"/></g><g transform="translate(-70,-134) scale(1,1)"><path fill="#000000" stroke="none" d="M 562.1626748576241 387.790482243984 L 552 392 L 562.1626748576241 396.209517756016"/></g><g transform="translate(-70,-134) scale(1,1)"><path fill="none" stroke="#000000" d="M 562.1626748576241 387.790482243984 L 552 392 L 562.1626748576241 396.209517756016 L 562.1626748576241 387.790482243984" stroke-miterlimit="10"/></g><g transform="translate(-70,-134) scale(1,1)"><g><path fill="none" stroke="none"/><text fill="#000000" stroke="none" font-family="arial" font-size="14px" font-style="normal" font-weight="normal" text-decoration="none" x="661" y="411">View all flights</text></g></g><g transform="translate(-70,-134) scale(1,1)"><g><path fill="none" stroke="none"/><text fill="#700000" stroke="none" font-family="Arial" font-size="36px" font-style="normal" font-weight="normal" text-decoration="none" x="421" y="185">LEVEL 0</text></g></g><g transform="translate(-70,-134) scale(1,1)"><path fill="none" stroke="#000000" d="M 416 184 L 571 184" stroke-miterlimit="10"/></g></g></svg>